<?xml version="1.0" encoding="utf-8"?>
<!-- Generator: Adobe Illustrator 26.3.1, SVG Export Plug-In . SVG Version: 6.00 Build 0)  -->
<svg version="1.1" id="Layer_1" xmlns="http://www.w3.org/2000/svg" xmlns:xlink="http://www.w3.org/1999/xlink" x="0px" y="0px"
	 viewBox="0 0 512 512" style="enable-background:new 0 0 512 512;" xml:space="preserve">
<style type="text/css">
	.st0{fill:#FFFFFF;}
</style>
<path class="st0" d="M511.9,502.9c-3.2,6.8-8.5,9.3-16.2,9.1c-13.1-0.4-26.3-0.3-39.5,0c-4.8,0.1-8.7-1.6-12-4.9
	c-11.2-11.4-22.6-22.7-33.9-33.9c-8.7-8.7-8.9-13.1-1.5-22.8c-2.3-4.1-5.6-5.5-10.6-5.5c-26.7,0.3-53.3,0.3-80,0.1
	c-3.7,0-6.8,0.7-9.3,3.5c-1.9,1.9-4,3.6-6.1,5.1c-3.6,2.5-7.7,2-10.3-1.2c-2.5-3.3-2.9-7.5,0.5-9.9c6.7-4.7,8.1-10.5,8.5-18.4
	c0.5-12.3,8.1-20.3,20.4-24.6c-1.5-1.5-2.5-2.8-3.9-4.1c-14.8-14.8-29.3-30.2-44.6-44.3c-13.1-12.2-13.4-31.4,4-41
	c-4.4-10.5-3.9-20.6,5.1-28.6c7.9-7.1,17-7.6,26.4-3.2c14.3-18.4,24.3-18.7,43.5-2c4.3-3.5,8-7.6,12.7-9.9
	c8.9-4.7,18.8-2.1,26.8,5.7c14.2,14,28.3,28.3,42.5,42.5c1.3,1.3,2.3,2.8,3.3,4.1c68.5-46.7,74.9-131.5,30.3-185.1
	c-0.8,2.3-1.7,3.9-1.7,5.5c-0.8,20.4-9.3,37.1-24.2,50.9c-4.5,4.3-8.7,8.7-13.1,13.1c-4.1,4-8.5,4.4-11.9,1.2
	c-3.3-3.3-3.1-7.6,0.9-11.9c6-6.1,12.3-12.2,18.3-18.4c9.3-10,14.4-21.9,14.4-35.7c0-5.7,1.7-10.4,6-14.2c2.5-2.1,4.8-4.5,6.9-6.5
	c-15.1-14.8-29.5-29.4-44.6-44.5c-5.9,10.7-16,9.7-26.7,9.5c-23.4-0.5-46.6-0.1-70-0.1c-1.7,0-3.6,0-5.3,0
	c-1.9,8.9,2.9,15.5,11.4,15.8c3.2,0.1,6.3,0.1,9.5,0c3.9-0.1,6.9,1.1,8.5,4.8c1.6,3.7,0,6.7-2.7,9.3c-20,20-40.1,40.1-60.1,60.1
	c-1.3,1.3-2.7,2.5-3.6,4.1c-2.3,3.5-2,7.1,1.1,10c3.2,3.1,6.9,2.9,10.4,0.3c1.3-0.9,2.4-2.3,3.6-3.5c13.1-13.1,26-26.2,39.3-39.1
	c2-1.9,5.1-3.6,7.6-3.6c2,0,5.2,2.4,5.9,4.4c0.7,2.4,0,6-1.5,8.1c-2.8,3.9-6.7,6.9-10,10.4c-14.6,14.6-29.3,29.2-43.8,43.8
	c-4,4-4.1,8.4-0.7,11.9c3.1,3.1,7.9,2.8,11.6-0.5c1.1-0.9,2.1-2.1,3.2-3.2c16.2-16.2,32.3-32.3,48.5-48.3c1.2-1.2,2.3-2.4,3.6-3.3
	c3.5-2.5,6.9-2.1,9.9,0.9c2.8,2.9,2.7,6.4,0.5,9.6c-0.8,1.2-2,2.3-3.1,3.3c-13.4,13.4-26.6,26.6-39.9,39.9
	c-4.5,4.5-5.1,9.1-1.5,12.6c3.3,3.3,8.4,2.8,12.8-1.5c13.6-13.5,27-27.1,40.7-40.5c2-2,5.3-3.6,8.1-3.6c2,0,5.2,2.7,5.6,4.7
	c0.5,2.7-0.4,6.5-2.1,8.5c-6.5,7.3-13.8,14-20.7,21c-2.8,2.8-3.7,6-2.3,9.5c2,5.1,8.4,6.1,13,2.1c3.9-3.5,7.3-7.3,11.1-10.8
	c4.3-4.1,8.4-4.3,11.8-0.8c3.1,3.2,2.7,7.6-1.1,11.5c-2.9,3.1-6.1,6.1-9.2,9.2c-13.1,13.1-28.7,11.5-39.4-4.4
	c-6.3,6.5-12.7,13-22.6,12.7c-9.6-0.3-16.7-4.9-21.2-13.9c-10.8,4.8-21,3.9-29-5.2c-6.9-7.7-7.2-16.8-2.9-26.3
	c-0.4-0.4-0.9-0.9-1.5-1.2c-14.6-9.2-16.6-25.5-4.5-37.7c15.4-15.5,30.9-30.8,46.3-46.3c1.3-1.3,2.9-2.1,4.8-3.3
	c-5.6-3.3-9.9-6-14.6-8.8c-15.9,9.6-29.3,22.3-39.7,38.2c-2.8,4.3-6.1,7.3-11.5,7.7c-6.3,0.4-10.3-2.8-13.5-7.7
	c-9.9-15-22.3-27.2-37.5-36.9c-0.8-0.5-1.7-0.9-2.3-1.3c-4.5,2.7-8.7,5.2-13.4,8.1c1.1,1.2,2.4,2.7,3.7,4
	c14.8,14.8,29.3,30,44.6,44.3c12.4,11.5,13.2,30.8-4.4,40.6c4.4,10.3,4,20.2-4.7,28.2c-7.9,7.3-17.2,8-26.7,3.5
	c-13.9,18.3-24.2,18.7-44.2,1.5c-1.9,2.3-3.5,4.7-5.6,6.7c-9.1,8.4-22.7,8.1-32.1-0.9c-19-18.7-37.9-37.5-56.5-56.6
	c-11.2-11.6-17.5-25.8-18.7-42.1c-0.3-2.8-0.9-5.5-1.5-9.1c-37.8,41.4-48.5,129,29,184.7c1.2-1.2,2.5-2.3,3.9-3.6
	c13.9-13.9,27.8-27.8,41.7-41.7c13.5-13.4,29-12,39.8,4c6.3-6.5,12.7-13,22.6-12.8c9.8,0.3,16.7,5.1,21.2,13.9
	c10.8-4.8,20.8-3.9,29,5.2c6.9,7.7,7.1,16.8,2.9,26.2c0.3,0.3,0.4,0.5,0.7,0.8c16,10.7,17.6,26,4,39.8c-15,15-29.9,29.9-44.9,44.9
	c-1.3,1.3-2.8,2.3-4,3.2c0.7,1.2,0.7,1.7,0.9,1.7c13.9,5.6,20,14.7,19.6,30.2c-0.1,3.7,0.8,6,3.7,8.4c12.7,10.5,25.2,21.2,37.8,31.9
	c2.8,2.5,4.9,2.7,7.6,0c2.1-2.1,4.4-4,6.9-5.7c3.5-2.5,7.7-2.1,10.4,0.8c2.8,3.1,2.5,7.3-0.7,10.8c-0.4,0.4-0.7,0.7-1.1,1.1
	c-12.6,10.9-19.4,17.8-37.9,0.8c-11.5-10.4-23.5-20.2-35.4-30c-1.7-1.5-4.4-2.7-6.5-2.7c-28.3-0.3-56.6-0.3-84.9,0
	c-2.7,0-5.2,2.7-8,4.1c1.9,2.8,3.6,4.7,4.5,6.9c2.3,5.2,1.3,10.1-2.8,14.2C91.9,483,79.4,495.7,66.6,508c-2.4,2.3-6.4,3.7-9.8,3.7
	c-14.3,0.4-28.7,0.3-43,0.1c-8.4,0-13.4-4.9-13.5-13.4c0-23.6,0-47.3-0.1-70.9c0-4.7,1.9-8.3,5.1-11.4
	c12.6-12.4,25.1-24.8,37.4-37.5c1.3-1.5,2.8-3.6,2.9-5.5c0.7-16.4,6.1-30.8,17.1-43.8c-2.8-2.5-5.5-4.9-8.3-7.2
	c-25.1-20.2-42.5-45.4-50.1-76.8C-6.1,202,2.4,162.5,29.1,127c0.9-1.3,2-2.7,3.3-4.3c-8.7-8.7-17.1-17.4-25.9-25.8
	C2,92.8,0,88,0.2,81.6c0.3-21.8,0.4-43.7,0-65.4C0,8.5,2.4,3.3,9.3,0c17.4,0,34.6,0,52,0c3.3,2.9,6.9,5.6,10.2,8.7
	c3.6,3.6,3.6,7.9,0.4,11.1c-3.1,3.1-7.7,3.2-11-0.5c-3.2-3.7-6.9-4.5-11.5-4.3c-4.9,0.3-10,0-15,0c-6.3,0-12.6,0-19.1,0
	c0,23,0,45.3,0,67.4c0,1.1,0.7,2.3,1.3,3.1c6.5,6.8,13.2,13.5,19.2,19.6c18.6-18.7,36.9-37,55.6-55.7c-1.3-1.2-3.3-2.7-5.1-4.5
	c-3.3-3.6-3.5-8.1-0.3-11.1c3-2.8,7.5-2.8,10.9,0.4c2.8,2.5,5.6,5.3,8.1,8.1c4.1,4.7,4.4,10.7,1.1,15.6c-0.9,1.3-2,2.5-2.9,3.7
	c2.5,4,5.6,5.5,10.4,5.5c27.8-0.3,55.6-0.1,83.5-0.1c8.5,0,13.6,5.1,14,13.6c0.1,2.3,0.3,4.7-0.1,6.9c-0.7,2.8,0.5,4.1,2.8,5.5
	c12.4,7.7,23.4,17.1,32.7,28.3c3.3,4,6.5,8.3,10,12.7c1.1-1.3,1.9-2.4,2.5-3.3c9.3-13.2,20.4-24.7,33.9-33.4
	c6.5-4.1,9.8-8.1,8.8-16.3c-0.9-8.7,5.1-13.9,13.9-13.9c27.6,0,55.3-0.1,82.9,0.1c4.9,0,8.3-1.2,10.6-5.3
	c-7.5-10.4-7.2-14.3,2.1-23.5c10.3-10.3,20.4-20.6,30.7-30.7c2.8-2.8,6-5.1,9.1-7.6c17.4,0,34.6,0,52,0c2.9,2.9,6,6,8.9,8.9
	c0,26.7,0,53.3,0,80c-2.5,3.1-4.8,6.3-7.6,9.1c-8.1,8.3-16.3,16.4-24.7,24.7c1.5,1.9,2.7,3.5,3.9,5.1c11.2,14.7,19.2,31,23.9,48.7
	c1.9,7.3,3.1,14.8,4.5,22.3c0,8.3,0,16.7,0,25c-0.3,1.1-0.8,2.1-0.9,3.3c-4.4,36.9-21,67-49,91.2c-4.1,3.6-8.3,7.1-12.6,10.8
	c11,13.1,16.6,27.9,17.1,44.6c0,1.6,1.6,3.5,2.9,4.8c11.8,11.9,23.5,23.5,35.3,35.4c2.7,2.7,4.8,5.9,7.2,8.7
	C511.9,449.6,511.9,476.2,511.9,502.9z M464.4,394.5c-2.9-2.7-6.3-4.8-8.4-7.9c-2.3-3.2-4.7-7.3-4.7-10.9
	c-0.3-16.4-6.7-29.9-18.3-41.3c-16.8-16.6-33.5-33.4-50.2-50.1c-1.3-1.3-2.5-2.7-4-3.6c-3.7-2.3-7.5-2-10.3,1.5
	c-2.7,3.2-2.5,6.8,0,10.1c0.8,1.1,1.9,2,2.8,2.9c6.4,6.4,12.8,12.7,19.1,19.1c3.7,3.7,3.9,8.4,0.7,11.5c-3.3,3.3-7.3,3.1-11.5-0.8
	c-0.8-0.8-1.6-1.6-2.5-2.4c-13-13-25.9-25.9-38.9-38.9c-4.7-4.5-9.8-5.1-13.1-1.5c-3.3,3.6-2.8,7.9,1.9,12.6
	c11.2,11.2,22.4,22.4,33.5,33.5c2.9,2.9,6,5.7,8.8,8.9c2.8,3.2,2.5,7.6-0.1,10.4c-2.9,2.9-6.8,3.1-10.3,0.4c-1.2-0.9-2.1-2-3.2-3.1
	c-16.3-16.3-32.5-32.4-48.8-48.7c-1.3-1.3-2.5-2.8-4-3.7c-3.6-2.3-7.3-2.4-10.4,0.8c-3.1,3.2-3.1,6.8-0.4,10.4
	c0.9,1.2,2,2.1,3.1,3.2c17,17,33.9,33.9,50.9,50.9c3.2,3.2,4.5,6.5,2.1,10.7c-2.8,4.7-8.1,4.8-12.7,0.3
	c-13.6-13.5-27.1-27.1-40.6-40.6c-5.2-5.2-9.6-5.9-13.4-2.1c-3.7,3.7-2.9,8.1,2.1,13.4c0.5,0.5,1.2,1.2,1.7,1.7
	c19.6,19.6,39.4,39.3,58.9,59.2c1.9,2,2.9,6,2.5,8.8c-0.5,3.9-4.3,5.1-8.1,5.1c-3.6,0-7.3-0.1-11,0.1c-7.7,0.7-12.3,7.7-10,15.8
	c1.7,0,3.5,0,5.3,0c23.5,0,47,0.5,70.5-0.3c10.6-0.4,19.8,0.1,26.6,9.3c0.1,0.1,0.3,0.1,0.3,0.1
	C434.7,424.2,449.2,409.8,464.4,394.5z M47.5,117.4c2.8,2.7,5.6,5.1,8.3,7.6c3.5,3.2,5.1,7.2,5.1,12c-0.1,15.8,6,28.7,17,39.7
	c17.4,17.2,34.6,34.6,52,51.9c1.2,1.2,2.4,2.4,3.9,3.2c3.7,2,7.2,1.5,9.9-1.7c2.5-3.1,2.4-6.5,0.1-9.7c-0.8-1.2-2-2.3-3.1-3.2
	c-6.4-6.5-13.1-12.8-19.4-19.5c-3.5-3.5-3.3-8.1-0.3-11.1c3.2-3.1,6.9-2.9,10.7,0.3c1.1,0.8,1.9,1.9,2.8,2.8
	c12.6,12.4,25,25,37.4,37.4c0.9,0.9,1.9,1.9,2.8,2.8c3.7,3.3,8.5,3.6,11.6,0.7c3.5-3.3,3.3-7.9-0.5-11.9c-12.4-12.6-25-25-37.4-37.5
	c-1.7-1.7-3.6-3.5-5.3-5.3c-3.3-3.6-3.5-8.1-0.4-11.1c3.2-3.2,7.1-3.1,11.1,0.4c0.9,0.8,1.6,1.6,2.5,2.4
	c16.4,16.4,32.7,32.7,49.2,49.1c1.3,1.3,2.5,2.7,4.1,3.6c3.5,2,7.1,2,10-1.2c2.9-3.1,2.9-6.5,0.5-10c-0.8-1.2-2-2.3-3.1-3.3
	c-16.6-16.6-33.3-33.3-49.8-49.8c-1.2-1.2-2.5-2.3-3.3-3.6c-2.1-3.3-2-6.7,0.8-9.6c2.8-2.8,6.1-3.2,9.5-0.9c1.7,1.2,3.2,2.8,4.8,4.4
	c13.2,13.2,26.3,26.4,39.7,39.5c4,4,8.5,4.1,11.9,0.7c3.2-3.2,2.9-7.6-0.5-11.6c-0.9-0.9-1.9-1.9-2.8-2.8
	c-19.8-19.8-39.5-39.5-59.4-59.3c-2.7-2.7-4.4-5.5-2.8-9.3c1.6-4,4.9-5.1,8.9-4.9c2.8,0.1,5.6,0,8.5,0c8.9-0.3,13.8-6.1,12.4-15.5
	c-1.3-0.1-2.8-0.3-4.3-0.3c-24.8,0-49.7-0.7-74.4,0.3c-10,0.4-17.5-1.6-23.6-9.2c-0.1-0.3-0.5-0.1-0.7-0.3
	C77.1,87.9,62.7,102.3,47.5,117.4z M194.6,429.7c1.5-9.7-3.3-15.6-12.3-15.9c-2.5,0-4.9-0.1-7.5,0c-4.3,0.1-8-0.5-9.9-4.9
	c-1.7-4.4,0.8-7.2,3.6-10c19.8-19.8,39.7-39.5,59.3-59.4c1.5-1.5,2.9-3.2,4-5.1c1.9-3.3,1.1-6.5-1.7-9.1c-2.9-2.7-6.3-2.8-9.6-0.7
	c-1.3,0.9-2.5,2.1-3.7,3.3c-12.8,12.8-25.6,25.6-38.5,38.5c-1.3,1.3-2.5,2.7-4,3.7c-3.3,2.3-6.7,1.9-9.5-0.9s-2.9-6.3-0.8-9.6
	c0.9-1.3,2.1-2.5,3.3-3.6c16.8-16.8,33.8-33.7,50.4-50.6c2.1-2.1,4-6.1,3.6-8.9c-0.9-6.5-8.7-7.9-14-2.7
	c-12.8,12.7-25.5,25.4-38.2,38.1c-5.2,5.2-10.3,10.4-15.6,15.5c-3.6,3.3-7.6,3.2-10.7,0.1c-2.9-2.9-2.9-7.3,0-10.8
	c0.8-1.1,1.9-1.9,2.8-2.8c12.8-12.8,25.6-25.6,38.5-38.5c1.1-1.1,2.3-2,3.1-3.2c2.4-3.5,2.4-6.9-0.4-10c-2.9-3.1-6.5-3.2-10-1.2
	c-1.6,0.9-2.8,2.3-4.1,3.6C159.8,297.4,147,310.2,134,323c-1.3,1.3-2.5,2.7-4.1,3.6c-3.2,2.1-6.4,1.6-9.1-0.9
	c-2.8-2.7-2.9-5.9-1.2-9.1c0.8-1.5,2-2.5,3.2-3.7c6.7-6.8,13.5-13.4,20-20.2c3.1-3.2,2.9-7.9,0.1-10.8c-2.9-3.1-7.1-3.3-10.8-0.5
	c-1.1,0.8-2,1.7-2.9,2.7c-17.2,17.2-34.3,34.5-51.6,51.5c-11.1,10.9-17.1,23.9-17,39.7c0,4.8-1.5,8.8-5.1,12c-2.8,2.5-5.7,4.9-8,6.8
	c15.5,15.5,29.9,30.2,45.1,45.4c1.6-1.9,3.1-4.5,5.3-6c2.9-1.9,6.5-3.9,9.9-3.9c25.5-0.1,51,0.3,76.4,0.4
	C187.8,429.7,191.2,429.7,194.6,429.7z M496.9,15.1c-13.6,0-26.7,0-39.8,0.1c-0.9,0-2.1,0.8-2.9,1.6c-11.4,11.2-22.7,22.4-33.4,33.3
	c18.6,18.4,36.9,36.7,55.2,55.2c5.7-5.7,12-11.8,17.8-18c1.7-1.9,2.9-4.8,2.9-7.3c0.3-17.1,0.1-34.3,0.1-51.4
	C496.9,24.2,496.9,19.9,496.9,15.1z M15,496.9c13.5,0,26.4,0,39.3,0c1.1,0,2.3-0.5,3.1-1.2C68.8,484.3,80.2,473,91,462.2
	c-18.6-18.6-36.7-36.9-55.2-55.2c-6,6-12.6,12.4-18.8,19c-1.1,1.1-1.9,2.8-1.9,4.3C14.9,452.2,15,474.2,15,496.9z M420.6,461.8
	c9.6,9.6,19.6,19.4,29.3,29.5c4,4.1,8,6,13.9,5.7c11-0.5,21.9-0.1,33.1-0.1c0-22.8,0-45.1-0.1-67.4c0-1.2-0.8-2.5-1.6-3.3
	c-6.4-6.7-13.1-13.4-19.2-19.6C457.5,425,439.2,443.2,420.6,461.8z"/>
</svg>
